<svg xmlns="http://www.w3.org/2000/svg" width="6.519" height="3.796" viewBox="0 0 6.519 3.796">
  <g id="Group_282" data-name="Group 282" transform="translate(0.5 0.536)">
    <g id="next" transform="translate(5.519 0) rotate(90)">
      <g id="Group_16" data-name="Group 16" transform="translate(0 0)">
        <path id="Path_26" data-name="Path 26" d="M2.7,2.608.338.062a.188.188,0,0,0-.28,0,.226.226,0,0,0,0,.3L2.281,2.759.058,5.153a.226.226,0,0,0,0,.3.19.19,0,0,0,.14.063.19.19,0,0,0,.14-.062L2.7,2.911a.226.226,0,0,0,0-.3Z" fill="#fff" stroke="#fff" stroke-width="1"/>
      </g>
    </g>
  </g>
</svg>
