<svg id="clock-svgrepo-com" xmlns="http://www.w3.org/2000/svg" width="35.692" height="35.692" viewBox="0 0 35.692 35.692">
  <path id="Path_539" data-name="Path 539" d="M17.846,0A17.846,17.846,0,1,0,35.692,17.846,17.866,17.866,0,0,0,17.846,0Zm0,33.577A15.731,15.731,0,1,1,33.577,17.846,15.749,15.749,0,0,1,17.846,33.577Z" transform="translate(0 0)" fill="#fff"/>
  <path id="Path_541" data-name="Path 541" d="M162.471,122.168a1.058,1.058,0,0,0-1.057-1.057H154.1v-5.1a1.058,1.058,0,0,0-2.115,0v6.154a1.058,1.058,0,0,0,1.057,1.058h8.37A1.058,1.058,0,0,0,162.471,122.168Z" transform="translate(-135.913 -102.8)" fill="#fff"/>
  <path id="Path_542" data-name="Path 542" d="M153.043,60.6a1.058,1.058,0,0,0,1.057-1.058V58.8a1.057,1.057,0,1,0-2.115,0v.745A1.058,1.058,0,0,0,153.043,60.6Z" transform="translate(-135.913 -51.638)" fill="#fff"/>
  <path id="Path_543" data-name="Path 543" d="M221.47,85.182a1.054,1.054,0,0,0,.748-.31l.527-.527a1.058,1.058,0,1,0-1.5-1.5l-.527.527a1.058,1.058,0,0,0,.748,1.805Z" transform="translate(-197.104 -73.812)" fill="#fff"/>
  <path id="Path_544" data-name="Path 544" d="M254.527,151.985h-.745a1.057,1.057,0,0,0,0,2.115h.745a1.057,1.057,0,0,0,0-2.115Z" transform="translate(-225.998 -135.913)" fill="#fff"/>
  <path id="Path_545" data-name="Path 545" d="M231.8,220.724a1.058,1.058,0,0,0-1.5,1.5l.527.527a1.057,1.057,0,0,0,1.5-1.5Z" transform="translate(-205.67 -197.105)" fill="#fff"/>
  <path id="Path_546" data-name="Path 546" d="M166.587,252.724a1.058,1.058,0,0,0-1.057,1.057v.745a1.058,1.058,0,0,0,2.115,0v-.745A1.057,1.057,0,0,0,166.587,252.724Z" transform="translate(-148.025 -225.998)" fill="#fff"/>
  <path id="Path_547" data-name="Path 547" d="M92.955,230.3l-.527.527a1.058,1.058,0,1,0,1.5,1.5l.527-.527a1.058,1.058,0,0,0-1.5-1.5Z" transform="translate(-82.377 -205.669)" fill="#fff"/>
  <path id="Path_548" data-name="Path 548" d="M59.546,165.53H58.8a1.058,1.058,0,1,0,0,2.115h.745a1.058,1.058,0,1,0,0-2.115Z" transform="translate(-51.637 -148.025)" fill="#fff"/>
  <path id="Path_549" data-name="Path 549" d="M84.874,94.451a1.057,1.057,0,0,0,0-1.5l-.527-.527a1.058,1.058,0,0,0-1.5,1.5l.527.527a1.057,1.057,0,0,0,1.5,0Z" transform="translate(-73.813 -82.377)" fill="#fff"/>
</svg>
